<?xml version="1.0" standalone="no"?>
<!DOCTYPE svg PUBLIC "-//W3C//DTD SVG 20010904//EN"
 "http://www.w3.org/TR/2001/REC-SVG-20010904/DTD/svg10.dtd">
<svg version="1.0" xmlns="http://www.w3.org/2000/svg"
 width="200.000000pt" height="200.000000pt" viewBox="0 0 200.000000 200.000000"
 preserveAspectRatio="xMidYMid meet">

<g transform="translate(0.000000,200.000000) scale(0.100000,-0.100000)"
fill="#000000" stroke="none">
<path d="M0 1000 l0 -1000 1000 0 1000 0 0 1000 0 1000 -1000 0 -1000 0 0
-1000z m1150 663 c25 -11 63 -40 85 -64 l40 -44 -40 37 c-67 62 -114 78 -238
78 -117 0 -151 -9 -214 -57 -20 -15 -34 -22 -29 -16 12 22 91 71 127 81 61 16
220 7 269 -15z m-437 -29 l42 -14 -45 4 c-25 2 -52 5 -60 7 -11 3 -16 -6 -18
-33 -2 -21 -7 -38 -13 -38 -10 0 -12 43 -3 77 7 25 13 24 97 -3z m661 10 c3
-9 6 -32 6 -52 0 -28 -3 -33 -10 -22 -5 8 -10 27 -10 41 l0 26 -52 -13 c-35
-9 -55 -11 -62 -4 -7 7 -2 10 15 11 13 0 40 7 59 14 46 18 47 18 54 -1z m-407
-35 c25 -38 28 -40 40 -22 33 45 54 63 73 63 25 0 26 -17 3 -23 -14 -4 -14 -5
3 -6 28 -1 91 -28 99 -42 4 -5 -1 -16 -11 -23 -15 -11 -12 -14 27 -20 l44 -7
-47 -18 c-25 -10 -60 -28 -76 -40 -17 -11 -35 -21 -41 -21 -20 0 -11 34 17 63
l27 29 -40 -19 c-79 -39 -89 -38 -134 16 -22 26 -38 51 -34 55 3 3 -9 6 -28 6
-26 0 -30 3 -19 10 8 5 26 10 40 11 17 1 19 3 8 6 -24 6 -23 23 2 23 12 0 30
-16 47 -41z m-83 -99 c8 -16 12 -30 9 -30 -13 0 -102 46 -103 53 0 4 18 7 39
7 34 0 42 -4 55 -30z m-112 -81 c16 -28 36 -48 63 -60 22 -10 32 -18 23 -18
-10 -1 -18 -7 -18 -13 0 -8 -3 -9 -8 -3 -4 6 -19 16 -35 23 -26 11 -39 33 -53
87 -9 37 2 30 28 -16z m562 -43 c19 -53 28 -108 17 -102 -5 3 -12 -11 -16 -30
-7 -38 -58 -95 -158 -177 -26 -21 -47 -46 -47 -54 0 -9 -3 -13 -7 -9 -13 12
26 70 64 96 67 45 101 80 108 110 4 17 10 30 14 30 5 0 11 25 14 56 6 58 -1
85 -37 139 l-20 30 27 -24 c15 -13 33 -42 41 -65z m-79 51 c4 -12 2 -34 -4
-48 -8 -22 -16 -26 -58 -27 -46 -1 -47 -1 -22 13 14 7 34 30 44 49 23 42 32
45 40 13z m-561 -17 c-21 -40 -34 -90 -25 -90 4 0 5 -16 3 -36 -3 -20 0 -39 5
-43 6 -3 20 -25 31 -48 14 -26 42 -56 76 -80 30 -20 62 -51 71 -68 l17 -30
-23 28 c-13 15 -46 42 -74 60 -27 17 -60 47 -72 66 -13 19 -23 30 -24 25 -1
-19 -18 33 -18 59 -1 16 -5 26 -11 22 -28 -17 7 110 42 152 17 21 18 15 2 -17z
m482 -16 c-3 -8 -18 -14 -33 -13 -27 0 -27 1 -5 9 12 5 22 14 22 20 0 6 -5 8
-12 4 -7 -4 -8 -3 -4 5 4 6 12 9 17 6 5 -4 10 0 10 7 1 7 3 5 6 -5 3 -10 2
-25 -1 -33z m-343 15 c5 -17 11 -20 31 -15 15 4 26 2 26 -4 0 -10 -21 -14 -50
-10 -17 2 -30 19 -30 38 0 20 17 14 23 -9z m198 -48 c7 -16 18 -27 25 -24 12
4 24 -26 24 -64 0 -17 -10 -27 -36 -38 -20 -8 -44 -15 -53 -14 -9 0 6 8 33 17
27 9 44 18 37 20 -7 2 -25 -2 -42 -8 -25 -11 -32 -10 -49 5 -24 21 -25 53 -6
100 19 44 49 47 67 6z m-409 -28 c-22 -43 -23 -131 -1 -117 5 3 9 -11 9 -30 0
-20 3 -36 8 -36 4 0 15 -21 24 -47 44 -122 155 -259 272 -334 57 -38 59 -38
90 -22 71 36 161 115 218 192 41 54 98 168 98 196 0 8 7 15 15 15 9 0 15 9 15
25 0 14 5 34 12 44 9 14 9 34 2 75 -9 50 -9 54 5 43 21 -16 41 -36 71 -71 l25
-29 -24 13 c-23 12 -24 11 -16 -11 4 -13 10 -62 12 -109 l5 -85 -21 19 c-12
11 -22 17 -24 15 -1 -2 -14 -29 -30 -59 -55 -111 -161 -207 -317 -286 l-74
-38 -96 50 c-123 63 -251 185 -298 283 -29 61 -31 63 -43 43 -8 -12 -18 -22
-23 -22 -9 0 -2 138 10 178 5 17 2 22 -12 22 -14 0 -6 13 33 50 54 53 70 62
55 33z m533 -53 c3 -4 -7 -22 -21 -40 l-26 -31 36 22 c41 24 50 10 10 -16 -14
-9 -23 -19 -20 -23 4 -3 12 0 18 6 15 15 28 16 28 2 0 -5 -17 -18 -37 -29 -41
-22 -40 -27 1 -11 31 11 36 -4 7 -20 -29 -15 -83 -12 -109 5 l-22 16 41 39
c40 38 41 41 34 86 l-7 47 31 -22 c17 -12 33 -26 36 -31z m-255 14 c-15 -38
-14 -41 36 -94 43 -46 44 -49 25 -59 -33 -18 -96 -13 -122 9 l-24 20 29 -10
c43 -15 44 -4 2 16 -20 10 -36 21 -36 26 0 11 7 10 41 -8 44 -22 47 -11 5 16
-20 12 -36 26 -36 32 0 6 11 3 25 -6 35 -23 39 -20 16 13 l-21 29 26 21 c35
28 46 26 34 -5z m134 -184 c14 -5 26 -14 26 -20 0 -7 -7 -7 -21 1 -13 6 -38 9
-60 5 -22 -4 -39 -2 -39 3 0 19 57 25 94 11z m-123 -51 c10 -47 2 -49 -16 -6
-18 44 -19 50 -3 45 7 -3 16 -20 19 -39z m209 36 c0 -4 -8 -20 -17 -38 -17
-30 -18 -31 -21 -9 -5 32 4 52 23 52 8 0 15 -2 15 -5z m-40 -165 c-18 -33 -25
-15 -9 22 9 23 15 28 17 16 2 -9 -2 -27 -8 -38z m36 -36 c-9 -34 -55 -54 -126
-54 -55 0 -65 3 -91 29 -16 16 -29 35 -29 42 0 7 13 -2 28 -21 26 -31 34 -34
93 -38 58 -4 67 -1 92 22 20 19 27 35 29 68 1 39 2 40 5 9 3 -19 2 -44 -1 -57z
m-116 23 c44 -3 41 -4 -15 -3 l-70 1 -3 30 -3 30 18 -27 c15 -23 25 -28 73
-31z m-450 -547 c0 -11 5 -20 10 -20 6 0 10 9 10 20 0 27 18 25 30 -2 l9 -23
0 23 c1 17 6 23 18 20 12 -2 22 -20 29 -53 l12 -50 1 53 c1 55 11 63 52 42 13
-7 19 -7 19 0 0 14 43 13 58 -2 9 -9 12 -9 12 0 0 19 20 14 21 -5 1 -17 2 -17
6 0 2 9 11 17 19 17 8 0 15 -8 15 -17 1 -17 2 -17 6 0 8 31 23 18 23 -20 0
-68 -8 -81 -46 -81 -28 0 -34 4 -34 21 0 21 0 21 -16 -1 -22 -32 -91 -32 -104
1 -9 22 -9 22 -9 1 -1 -20 -6 -22 -61 -22 -52 0 -60 2 -60 19 0 10 -4 19 -10
19 -5 0 -10 -9 -10 -20 0 -11 -4 -20 -10 -20 -6 0 -10 27 -10 60 0 33 4 60 10
60 6 0 10 -9 10 -20z m406 -7 c10 -48 12 -49 13 -10 1 38 15 46 55 31 22 -9
23 -114 1 -114 -8 0 -16 10 -16 23 l-2 22 -4 -22 c-4 -20 -10 -22 -53 -22
l-48 2 4 36 c9 67 14 81 29 81 8 0 17 -12 21 -27z m152 10 c2 -8 -6 -13 -20
-14 l-23 0 23 -9 c12 -5 22 -14 22 -20 0 -6 -10 -15 -22 -20 l-23 -9 23 0 c35
-1 28 -31 -8 -31 l-30 0 0 61 c0 60 0 60 27 57 14 -2 28 -9 31 -15z m232 -1
c9 -16 9 -16 10 1 0 20 39 24 58 5 9 -9 12 -9 12 0 0 7 13 12 30 12 33 0 44
-29 13 -31 -17 -1 -17 -2 0 -6 9 -2 17 -11 17 -18 0 -8 -8 -19 -17 -24 -17
-10 -17 -10 0 -11 9 0 17 -7 17 -15 0 -11 -12 -15 -45 -15 -40 0 -45 3 -46 23
-2 21 -2 21 -6 1 -3 -17 -12 -21 -48 -22 -51 0 -62 9 -68 58 -3 30 -4 28 -5
-12 -2 -35 -6 -48 -17 -48 -11 0 -15 12 -15 45 0 57 -18 59 -22 3 -2 -35 -7
-44 -24 -46 -27 -4 -51 23 -35 41 7 10 7 17 0 24 -8 8 -8 17 0 31 9 18 21 20
96 20 69 0 87 -3 95 -16z"/>
<path d="M572 1252 c-7 -23 -15 -66 -18 -95 -5 -46 -4 -50 9 -34 18 21 27 22
27 1 0 -9 14 -44 32 -78 34 -65 159 -197 218 -230 28 -16 23 -9 -27 40 -66 65
-135 165 -154 222 -13 42 -29 64 -29 42 0 -13 -2 -13 -10 0 -5 8 -10 28 -10
43 0 16 -4 26 -9 22 -6 -3 -11 19 -13 52 l-3 58 -13 -43z"/>
<path d="M1401 1250 c-1 -49 -25 -127 -37 -122 -4 2 -17 -21 -30 -52 -28 -69
-73 -135 -143 -210 -85 -90 -21 -49 76 49 61 62 89 100 114 153 28 59 36 69
48 59 12 -10 13 -4 9 43 -3 30 -12 71 -21 90 l-15 35 -1 -45z"/>
<path d="M768 335 c-3 -14 -1 -25 3 -25 5 0 9 11 9 25 0 14 -2 25 -4 25 -2 0
-6 -11 -8 -25z"/>
</g>
</svg>
